<svg elementtiming="1" width="32" height="32" viewBox="8 4 24 20" fill="none"><rect elementtiming="1" width="16" height="16"></rect><path d="M 13.21 17 C 12.74 17 12.29 16.74 12.05 16.26 L 9.28 11.26 C 9.03 10.83 9.07 10.32 9.28 9.96 L 12.07 4.96 C 12.31 4.51 12.73 4.28 13.16 4.28 L 18.77 4.28 C 19.19 4.28 19.6 4.49 19.85 4.91 L 22.63 9.9 C 22.97 10.43 22.85 10.99 22.66 11.3 L 19.9 16.26 C 19.71 16.67 19.29 17 18.75 17 Z" fill="#5184f3" stroke="none" pointer-events="all"></path><path d="M 17.04 17 L 13.41 13.27 L 14.56 10.93 L 13.42 9.86 L 15.19 7.99 L 16.28 9.06 L 18.55 7.99 L 22.33 11.91 L 19.9 16.26 C 19.71 16.67 19.29 17 18.75 17 Z" fill-opacity="0.07" fill="#000000" stroke="none" pointer-events="all"></path><rect x="9.03" y="4.28" width="0" height="0" fill="none" stroke="white" pointer-events="stroke" visibility="hidden" stroke-width="9"></rect><rect x="9.03" y="4.28" width="0" height="0" fill="none" stroke="none" pointer-events="all"></rect><path d="M 16.72 11.96 L 16.72 11.54 C 16.72 11.46 16.77 11.4 16.85 11.4 L 17.25 11.4 L 17.25 9.87 L 16.87 9.87 C 16.76 9.87 16.72 9.81 16.72 9.72 L 16.72 9.32 L 15.23 9.32 L 15.23 9.7 C 15.23 9.83 15.18 9.87 15.05 9.87 L 14.7 9.87 L 14.7 11.4 L 15.09 11.4 C 15.17 11.4 15.23 11.44 15.23 11.54 L 15.23 11.96 Z M 13.5 13.31 C 13.41 13.31 13.39 13.25 13.39 13.18 L 13.39 11.52 C 13.39 11.45 13.42 11.4 13.5 11.4 L 14.13 11.4 L 14.13 9.87 L 13.52 9.87 C 13.45 9.87 13.39 9.84 13.39 9.74 L 13.39 8.11 C 13.39 8.01 13.44 7.97 13.55 7.97 L 15.1 7.97 C 15.19 7.97 15.23 8.03 15.23 8.13 L 15.23 8.74 L 16.72 8.74 L 16.72 8.08 C 16.72 8.01 16.75 7.97 16.84 7.97 L 18.45 7.97 C 18.53 7.97 18.57 7.99 18.57 8.08 L 18.57 9.72 C 18.57 9.83 18.51 9.87 18.4 9.87 L 17.83 9.87 L 17.83 11.4 L 18.4 11.4 C 18.51 11.4 18.57 11.41 18.57 11.59 L 18.57 13.18 C 18.57 13.25 18.53 13.31 18.44 13.31 L 16.85 13.31 C 16.74 13.31 16.72 13.24 16.72 13.15 L 16.72 12.54 L 15.23 12.54 L 15.23 13.14 C 15.23 13.23 15.18 13.31 15.07 13.31 Z" fill="#ffffff" stroke="none" pointer-events="all"></path></svg>
